<svg width="22" height="22" viewBox="0 0 22 22" fill="none" xmlns="http://www.w3.org/2000/svg">
<path d="M11.0001 8.13619C9.42315 8.13619 8.13624 9.4231 8.13624 11.0001C8.13624 12.577 9.42315 13.8639 11.0001 13.8639C12.5771 13.8639 13.864 12.577 13.864 11.0001C13.864 9.4231 12.5771 8.13619 11.0001 8.13619ZM19.5896 11.0001C19.5896 9.81411 19.6003 8.63892 19.5337 7.45513C19.4671 6.08013 19.1534 4.85982 18.148 3.85435C17.1403 2.84673 15.9222 2.53521 14.5472 2.46861C13.3612 2.40201 12.186 2.41275 11.0023 2.41275C9.81632 2.41275 8.64112 2.40201 7.45733 2.46861C6.08233 2.53521 4.86202 2.84888 3.85655 3.85435C2.84893 4.86197 2.53741 6.08013 2.47081 7.45513C2.4042 8.64107 2.41495 9.81626 2.41495 11.0001C2.41495 12.1838 2.4042 13.3612 2.47081 14.545C2.53741 15.92 2.85108 17.1403 3.85655 18.1458C4.86417 19.1534 6.08233 19.4649 7.45733 19.5315C8.64327 19.5981 9.81847 19.5874 11.0023 19.5874C12.1882 19.5874 13.3634 19.5981 14.5472 19.5315C15.9222 19.4649 17.1425 19.1512 18.148 18.1458C19.1556 17.1381 19.4671 15.92 19.5337 14.545C19.6025 13.3612 19.5896 12.186 19.5896 11.0001ZM11.0001 15.4065C8.56163 15.4065 6.59366 13.4385 6.59366 11.0001C6.59366 8.56158 8.56163 6.59361 11.0001 6.59361C13.4386 6.59361 15.4066 8.56158 15.4066 11.0001C15.4066 13.4385 13.4386 15.4065 11.0001 15.4065ZM15.587 7.44224C15.0177 7.44224 14.5579 6.98247 14.5579 6.41314C14.5579 5.8438 15.0177 5.38404 15.587 5.38404C16.1564 5.38404 16.6161 5.8438 16.6161 6.41314C16.6163 6.54833 16.5898 6.68223 16.5381 6.80716C16.4865 6.93209 16.4107 7.04561 16.3151 7.1412C16.2195 7.2368 16.106 7.31259 15.981 7.36425C15.8561 7.41591 15.7222 7.44241 15.587 7.44224Z" fill="white"/>
</svg>
