<svg width="22" height="22" viewBox="0 0 22 22" fill="none" xmlns="http://www.w3.org/2000/svg">
<g clip-path="url(#clip0_366_1057)">
<path d="M3.29614 9.76497C8.35902 7.54753 11.7343 6.08551 13.4219 5.37919C18.246 3.36227 19.2472 3.01197 19.9011 3.0001C20.0449 2.99778 20.365 3.03352 20.574 3.20335C20.7476 3.34658 20.7964 3.54028 20.8209 3.67628C20.8426 3.81214 20.8724 4.12178 20.848 4.3635C20.5875 7.12439 19.4561 13.8242 18.8809 16.9166C18.6394 18.225 18.1592 18.6637 17.6952 18.7065C16.6859 18.7998 15.9208 18.0365 14.944 17.3929C13.4165 16.3854 12.5537 15.7585 11.0695 14.7755C9.35477 13.6395 10.4672 13.015 11.444 11.9947C11.699 11.7276 16.1433 7.66402 16.2274 7.29545C16.2382 7.24934 16.2491 7.07747 16.146 6.98689C16.0456 6.89604 15.8964 6.92715 15.7878 6.9517C15.6332 6.98662 13.194 8.60933 8.46212 11.8195C7.77025 12.2981 7.1435 12.5313 6.57914 12.519C5.96053 12.5057 4.76671 12.1666 3.87949 11.8768C2.7942 11.5214 1.92868 11.3334 2.00465 10.7296C2.04263 10.4154 2.47403 10.0937 3.29614 9.76497Z" fill="white"/>
</g>
<defs>
<clipPath id="clip0_366_1057">
<rect width="22" height="22" fill="white"/>
</clipPath>
</defs>
</svg>
