<svg width="96" height="14" viewBox="0 0 96 14" fill="none" xmlns="http://www.w3.org/2000/svg">
<path d="M0.9 14L7.2 -9.53674e-07H9.76L16.08 14H13.36L7.94 1.38H8.98L3.58 14H0.9ZM3.8 10.76L4.5 8.72H12.06L12.76 10.76H3.8ZM17.8605 14V-9.53674e-07H23.9805C25.5005 -9.53674e-07 26.8338 0.293333 27.9805 0.88C29.1271 1.46667 30.0205 2.28 30.6605 3.32C31.3005 4.36 31.6205 5.58667 31.6205 7C31.6205 8.4 31.3005 9.62667 30.6605 10.68C30.0205 11.72 29.1271 12.5333 27.9805 13.12C26.8338 13.7067 25.5005 14 23.9805 14H17.8605ZM20.4605 11.8H23.8605C24.9138 11.8 25.8205 11.6 26.5805 11.2C27.3538 10.8 27.9471 10.24 28.3605 9.52C28.7871 8.8 29.0005 7.96 29.0005 7C29.0005 6.02667 28.7871 5.18667 28.3605 4.48C27.9471 3.76 27.3538 3.2 26.5805 2.8C25.8205 2.4 24.9138 2.2 23.8605 2.2H20.4605V11.8ZM34.3839 14V-9.53674e-07H36.5239L42.6439 10.22H41.5239L47.5439 -9.53674e-07H49.6839L49.7039 14H47.2439L47.2239 3.86H47.7439L42.6239 12.4H41.4639L36.2639 3.86H36.8639V14H34.3839ZM51.5055 14L57.8055 -9.53674e-07H60.3655L66.6855 14H63.9655L58.5455 1.38H59.5855L54.1855 14H51.5055ZM54.4055 10.76L55.1055 8.72H62.6655L63.3655 10.76H54.4055ZM68.4659 14V-9.53674e-07H74.2259C75.4659 -9.53674e-07 76.5259 0.199999 77.4059 0.6C78.2993 0.999999 78.9859 1.57333 79.4659 2.32C79.9459 3.06667 80.1859 3.95333 80.1859 4.98C80.1859 6.00667 79.9459 6.89333 79.4659 7.64C78.9859 8.37333 78.2993 8.94 77.4059 9.34C76.5259 9.72667 75.4659 9.92 74.2259 9.92H69.9059L71.0659 8.74V14H68.4659ZM77.6259 14L74.0859 8.92H76.8659L80.4259 14H77.6259ZM71.0659 9.02L69.9059 7.78H74.1059C75.2526 7.78 76.1126 7.53333 76.6859 7.04C77.2726 6.54667 77.5659 5.86 77.5659 4.98C77.5659 4.08667 77.2726 3.4 76.6859 2.92C76.1126 2.44 75.2526 2.2 74.1059 2.2H69.9059L71.0659 0.919999V9.02ZM85.4148 10.7L85.2748 7.62L92.6148 -9.53674e-07H95.5348L89.4348 6.48L87.9948 8.06L85.4148 10.7ZM83.0948 14V-9.53674e-07H85.6948V14H83.0948ZM92.8548 14L87.4948 7.62L89.2148 5.72L95.8948 14H92.8548Z" fill="white"/>
</svg>
