<svg width="88" height="88" viewBox="0 0 88 88" fill="none" xmlns="http://www.w3.org/2000/svg">
<path d="M62.4992 10.729C62.3551 11.0773 62.1537 11.3682 61.8949 11.6031C61.6361 11.838 61.3052 11.9954 60.8997 12.0742C60.4941 12.1529 60.0058 12.1436 59.4362 12.0448C58.8665 11.9461 58.1928 11.7366 57.4164 11.4136C56.6399 11.0907 56.0436 10.7384 55.6247 10.3567C55.2071 9.97506 54.9136 9.5854 54.7442 9.1904C54.5748 8.7954 54.4987 8.4044 54.5174 8.01607C54.5348 7.62908 54.5975 7.2661 54.7028 6.92982L55.8782 7.41823C55.6741 8.03475 55.7341 8.60457 56.0596 9.12501C56.3851 9.64679 56.9828 10.0885 57.8553 10.4501C58.7571 10.8251 59.5122 11.0159 60.1206 11.0213C60.7302 11.0266 61.1345 10.7984 61.3346 10.3354C61.536 9.87231 61.4453 9.44528 61.0624 9.05161C60.6795 8.65795 60.0085 8.22825 59.0506 7.75985C58.4103 7.4676 57.8646 7.1887 57.415 6.92448C56.9668 6.66025 56.6186 6.38535 56.3731 6.10111C56.1263 5.81687 55.9849 5.51128 55.9489 5.183C55.9115 4.85472 55.9809 4.47707 56.1597 4.04871C56.2917 3.7311 56.4919 3.45887 56.7587 3.23201C57.0268 3.00515 57.367 2.84902 57.7792 2.76495C58.1915 2.68088 58.6757 2.67821 59.2321 2.75694C59.7884 2.83701 60.4221 3.02384 61.1305 3.31875C61.8922 3.63502 62.4752 3.97798 62.8821 4.34629C63.2877 4.7146 63.5745 5.08959 63.7413 5.46991C63.908 5.85157 63.9801 6.23189 63.956 6.61221C63.932 6.99254 63.868 7.35151 63.7613 7.68913L62.5859 7.20071C62.7007 6.84041 62.7354 6.5148 62.6927 6.22388C62.6486 5.93297 62.5392 5.66875 62.3645 5.43121C62.1897 5.19368 61.9603 4.9815 61.6734 4.79334C61.3866 4.60518 61.0598 4.43437 60.6902 4.2809C60.2686 4.10609 59.8751 3.97264 59.5109 3.8819C59.1453 3.79115 58.8158 3.74712 58.525 3.75112C58.2328 3.75512 57.9834 3.8125 57.7779 3.92193C57.5725 4.03136 57.419 4.20484 57.3217 4.44104C57.2283 4.67057 57.2016 4.88408 57.2469 5.08025C57.2923 5.27641 57.4084 5.46858 57.5991 5.65674C57.7899 5.8449 58.0541 6.03706 58.3929 6.23322C58.7318 6.43073 59.1387 6.64557 59.6149 6.87777C60.2793 7.19804 60.8343 7.49963 61.2799 7.78387C61.7255 8.06811 62.067 8.36036 62.3071 8.65928C62.5473 8.95954 62.682 9.27447 62.7127 9.60809C62.742 9.9417 62.6713 10.3154 62.4992 10.729Z" fill="#FA1111"/>
<path d="M71.0534 16.6714C70.2516 17.3266 69.3925 17.6002 68.4747 17.4908C67.5568 17.3814 66.6069 16.9477 65.6264 16.187C65.0314 15.7266 64.5618 15.2355 64.2149 14.7138C63.8694 14.192 63.6493 13.6595 63.5546 13.1151C63.4598 12.5706 63.4905 12.0208 63.6479 11.4643C63.8054 10.9079 64.0909 10.3634 64.5018 9.83229L64.6338 9.66147C65.0607 9.11034 65.525 8.68731 66.0293 8.38839C66.5336 8.08947 67.0605 7.91866 67.6115 7.87462C68.1625 7.83059 68.7321 7.91199 69.3205 8.12017C69.9088 8.32834 70.5011 8.66196 71.0961 9.12235C71.6017 9.51468 72.0233 9.92169 72.3595 10.3447C72.6957 10.7664 72.9372 11.2001 73.0852 11.6432C73.2333 12.0862 73.284 12.5399 73.2413 13.0016C73.1973 13.4634 73.0452 13.9278 72.7851 14.3948L71.7592 13.6008C71.8872 13.3046 71.9566 12.9963 71.9673 12.676C71.9779 12.3558 71.9313 12.0368 71.8285 11.7179C71.7258 11.3989 71.5604 11.0907 71.3336 10.7878C71.1068 10.4848 70.82 10.1993 70.4718 9.9297C70.0102 9.57073 69.5526 9.32519 69.099 9.19174C68.6454 9.0583 68.2092 9.02093 67.7876 9.08098C67.3674 9.1397 66.9671 9.29316 66.5883 9.54137C66.208 9.78958 65.8625 10.1152 65.549 10.5209C65.2502 10.9079 65.0314 11.3095 64.894 11.7299C64.7552 12.1503 64.7112 12.5706 64.7592 12.9923C64.8073 13.414 64.9527 13.8277 65.1955 14.2347C65.4383 14.6404 65.7905 15.022 66.2521 15.3797C66.9538 15.9241 67.6395 16.2391 68.3066 16.3258C68.9736 16.4112 69.5539 16.2671 70.0489 15.8908L71.0534 16.6714Z" fill="#FA1111"/>
<path d="M73.1095 18.5224L70.6454 20.3613L69.9424 19.4178L76.6782 14.3895L80.032 18.8853C80.2948 19.2376 80.4883 19.5939 80.611 19.9516C80.7337 20.3092 80.7791 20.6575 80.7471 20.9965C80.7151 21.3354 80.603 21.6637 80.4109 21.9813C80.2175 22.2989 79.94 22.5951 79.5744 22.8687C79.0208 23.2517 78.4978 23.4399 78.0042 23.4345C77.5106 23.4292 77.041 23.2624 76.5968 22.9341L75.1306 26.3517L74.3048 25.2441L75.7176 22.0173L73.1095 18.5224ZM73.9566 17.8912L76.37 21.1246C76.7862 21.6824 77.2051 22.016 77.6267 22.1268C78.0482 22.2375 78.4671 22.1361 78.8847 21.8252C79.2956 21.5182 79.5184 21.1526 79.5544 20.7256C79.5904 20.2985 79.4157 19.8261 79.0275 19.3057L76.5354 15.9655L73.9566 17.8912Z" fill="#FA1111"/>
<path d="M79.3946 25.1827C80.1137 24.9318 80.7741 24.8224 81.3771 24.8531C81.9801 24.8824 82.5244 25.0346 83.0113 25.3068C83.4983 25.579 83.9265 25.9593 84.2974 26.4464C84.6683 26.9335 84.9831 27.514 85.2419 28.1879C85.5007 28.8605 85.6502 29.5037 85.6928 30.1175C85.7355 30.7314 85.6648 31.3025 85.4821 31.8323C85.2993 32.3621 84.9951 32.8372 84.5709 33.2629C84.1466 33.6872 83.5903 34.0435 82.9033 34.3331L82.7018 34.4105C81.9974 34.6547 81.3464 34.7615 80.7474 34.7294C80.1484 34.6974 79.6081 34.5453 79.1252 34.2717C78.6422 33.9981 78.2153 33.6165 77.8444 33.1294C77.4736 32.641 77.1587 32.0618 76.8999 31.3879C76.6411 30.714 76.4877 30.0735 76.437 29.4623C76.3876 28.8511 76.4517 28.2826 76.6318 27.7542C76.8119 27.2257 77.1107 26.752 77.5309 26.329C77.9512 25.906 78.5048 25.5497 79.1919 25.2601L79.3946 25.1827ZM84.2534 28.5655C84.0559 28.0491 83.8091 27.6061 83.5116 27.2351C83.2155 26.8641 82.8766 26.5825 82.4991 26.389C82.1215 26.1955 81.6999 26.0954 81.2397 26.0874C80.7781 26.0808 80.2778 26.1795 79.7402 26.3864C79.2252 26.5839 78.801 26.8387 78.4701 27.1497C78.1393 27.4606 77.8978 27.8156 77.7471 28.2119C77.595 28.6082 77.5309 29.0446 77.5536 29.5197C77.5763 29.9948 77.6884 30.4912 77.8858 31.0063C78.0832 31.5214 78.33 31.9658 78.6275 32.3367C78.925 32.7077 79.2612 32.9893 79.6401 33.1828C80.019 33.3763 80.4352 33.4777 80.8888 33.4884C81.3424 33.4977 81.832 33.403 82.355 33.2028C82.8713 33.0053 83.2955 32.7504 83.6304 32.4368C83.9639 32.1246 84.212 31.7683 84.3708 31.3679C84.5295 30.9676 84.6002 30.5299 84.5802 30.0535C84.5602 29.5784 84.4521 29.0806 84.2534 28.5655Z" fill="#FA1111"/>
<path d="M80.7376 43.5384L79.6876 43.6598L78.8672 36.5725L87.2159 35.605L87.3519 36.774L80.0519 37.6187L80.7376 43.5384Z" fill="#FA1111"/>
<path d="M79.9477 51.641L78.8965 51.5303L79.6396 44.4349L87.9989 45.3103L87.8762 46.4807L80.5681 45.7147L79.9477 51.641Z" fill="#FA1111"/>
<path d="M76.857 67.1395C76.1553 66.7552 75.6029 66.3455 75.2014 65.9118C74.7998 65.4781 74.533 65.0164 74.3983 64.5279C74.2635 64.0395 74.2515 63.5244 74.3609 62.9813C74.4716 62.4395 74.6891 61.8697 75.016 61.2718L77.1078 57.4473L84.4799 61.4827L82.6816 64.7695C82.5015 65.1004 82.3027 65.4274 82.0892 65.753C81.8758 66.0786 81.6397 66.3762 81.3822 66.6457C81.1247 66.9166 80.8432 67.1475 80.5377 67.341C80.2322 67.5345 79.896 67.6653 79.5291 67.7333C79.1636 67.8027 78.7621 67.7947 78.3285 67.7133C77.8949 67.6319 77.4213 67.4491 76.909 67.1689L76.857 67.1395ZM77.4707 58.9872L76.1392 61.4213C75.7897 62.0605 75.5736 62.613 75.4922 63.0801C75.4108 63.5471 75.4362 63.9555 75.5683 64.3051C75.7003 64.6547 75.9231 64.9657 76.238 65.2325C76.5515 65.5008 76.9304 65.7557 77.3733 65.9972C77.8375 66.2507 78.2644 66.4122 78.6553 66.4803C79.0462 66.5483 79.4184 66.5163 79.7679 66.3842C80.1175 66.2521 80.4537 66.0159 80.7725 65.6743C81.0914 65.3326 81.4102 64.8802 81.7277 64.3144L82.9898 62.0071L77.4707 58.9872Z" fill="#FA1111"/>
<path d="M75.956 68.1965C76.4843 68.7437 76.8619 69.2975 77.0887 69.8566C77.3141 70.4171 77.4062 70.9749 77.3635 71.53C77.3208 72.0852 77.1567 72.6336 76.8699 73.1768C76.583 73.7186 76.1895 74.2484 75.6879 74.7648C75.1863 75.2812 74.666 75.6882 74.127 75.9858C73.588 76.2821 73.0397 76.4582 72.4834 76.5156C71.9271 76.5717 71.3668 76.4969 70.8038 76.2901C70.2408 76.0832 69.6832 75.7296 69.1322 75.2278L68.9775 75.0771C68.4598 74.5419 68.089 73.9948 67.8662 73.437C67.6434 72.8792 67.554 72.3254 67.5993 71.7716C67.6447 71.2178 67.8115 70.6706 68.097 70.1288C68.3838 69.5871 68.7773 69.0573 69.279 68.5408C69.7806 68.0231 70.2982 67.6134 70.8318 67.3118C71.3655 67.0089 71.9098 66.8287 72.4634 66.77C73.017 66.7113 73.5747 66.7833 74.135 66.9875C74.6953 67.1917 75.2516 67.544 75.8026 68.0458L75.956 68.1965ZM74.9301 74.0308C75.3157 73.6345 75.6132 73.2235 75.8239 72.7991C76.0361 72.3748 76.1495 71.9491 76.1655 71.5247C76.1815 71.099 76.0961 70.676 75.9093 70.2543C75.7226 69.8326 75.4211 69.4203 75.0075 69.0199C74.6113 68.6343 74.2017 68.358 73.7815 68.1885C73.3612 68.0204 72.937 67.9497 72.5128 67.9777C72.0885 68.007 71.6656 68.1325 71.2454 68.354C70.8238 68.5755 70.4209 68.8838 70.0367 69.2801C69.6512 69.6765 69.3537 70.0875 69.1429 70.5118C68.9321 70.9362 68.8174 71.3619 68.8014 71.7876C68.7853 72.212 68.8681 72.6323 69.0495 73.0487C69.2309 73.465 69.5231 73.868 69.9246 74.259C70.3209 74.6447 70.7304 74.9223 71.1547 75.0944C71.5789 75.2665 72.0058 75.3413 72.4354 75.3173C72.865 75.2932 73.2932 75.1731 73.7161 74.9543C74.139 74.7354 74.5446 74.4272 74.9301 74.0308Z" fill="#FA1111"/>
<path d="M64.1652 82.143L61.9133 74.6926L63.7903 73.6958L69.8604 79.9905L68.7785 80.5656L63.1593 74.7367L65.4593 82.3271L63.6036 83.312L58.6541 77.2094L60.315 85.0561L59.2331 85.6299L57.4268 77.072L59.2718 76.0925L64.1652 82.143Z" fill="#FA1111"/>
<path d="M54.5973 85.9356L53.2805 78.4239L54.4398 78.2211L55.8913 86.5014L53.8689 86.8564L47.1824 80.2868L48.4992 87.7985L47.3519 88L45.9004 79.7197L47.9349 79.362L54.5973 85.9356Z" fill="#FA1111"/>
<path d="M25.3896 77.2175C25.535 76.8705 25.7378 76.5796 25.9966 76.3461C26.2554 76.1112 26.5876 75.9564 26.9931 75.8777C27.3987 75.799 27.887 75.8123 28.4566 75.9124C29.0263 76.0125 29.7 76.2247 30.4751 76.5503C31.2502 76.8759 31.8452 77.2295 32.2627 77.6125C32.679 77.9955 32.9711 78.3852 33.1392 78.7815C33.3073 79.1778 33.382 79.5688 33.362 79.9558C33.3433 80.3428 33.2806 80.7058 33.1739 81.0421L31.9999 80.5497C32.2067 79.9331 32.148 79.3633 31.8238 78.8415C31.501 78.3198 30.9033 77.8754 30.0322 77.5098C29.1317 77.1321 28.3766 76.9386 27.7682 76.9306C27.1599 76.9226 26.7543 77.1508 26.5515 77.6125C26.3488 78.0742 26.4381 78.5026 26.8197 78.8976C27.2012 79.2913 27.8709 79.725 28.8275 80.196C29.4678 80.4909 30.0121 80.7712 30.4604 81.0367C30.9087 81.3023 31.2555 81.5785 31.4996 81.8641C31.7451 82.1484 31.8852 82.4553 31.9212 82.7836C31.9572 83.1118 31.8852 83.4895 31.7064 83.9179C31.573 84.2355 31.3729 84.5077 31.1034 84.7332C30.8353 84.9587 30.4951 85.1135 30.0815 85.1976C29.6693 85.2803 29.185 85.2817 28.6287 85.2003C28.0724 85.1189 27.44 84.9294 26.7316 84.6331C25.9712 84.3142 25.3882 83.9699 24.984 83.6003C24.5784 83.2306 24.2929 82.8543 24.1275 82.4726C23.9621 82.091 23.8927 81.7093 23.9167 81.329C23.9421 80.9487 24.0075 80.5897 24.1142 80.2521L25.2882 80.7445C25.1721 81.1048 25.1347 81.4291 25.1774 81.72C25.2201 82.0122 25.3282 82.2765 25.5016 82.514C25.6751 82.7515 25.9045 82.965 26.19 83.1532C26.4755 83.3427 26.8024 83.5148 27.1719 83.6696C27.5921 83.8458 27.9857 83.9806 28.3499 84.0727C28.7141 84.1647 29.0436 84.2101 29.3358 84.2061C29.6279 84.2034 29.8774 84.1474 30.0842 84.038C30.291 83.9285 30.4431 83.7564 30.5418 83.5202C30.6378 83.292 30.6645 83.0785 30.6205 82.8823C30.5778 82.6861 30.4604 82.494 30.2696 82.3058C30.0802 82.1177 29.816 81.9242 29.4772 81.7253C29.1397 81.5278 28.7328 81.3116 28.2578 81.0781C27.5935 80.7565 27.0398 80.4522 26.5956 80.1653C26.1513 79.8784 25.8098 79.5862 25.571 79.2859C25.3322 78.9857 25.1988 78.6694 25.1681 78.3358C25.1441 78.0048 25.2161 77.6298 25.3896 77.2175Z" fill="#FA1111"/>
<path d="M16.8511 71.2472C17.6542 70.5947 18.5147 70.3238 19.4325 70.4359C20.3504 70.548 21.2976 70.9857 22.2768 71.749C22.8705 72.212 23.3387 72.7045 23.6829 73.2262C24.0271 73.7493 24.2446 74.2818 24.338 74.8263C24.4313 75.3707 24.398 75.9219 24.2379 76.477C24.0792 77.0335 23.7923 77.5766 23.3788 78.1064L23.2454 78.2759C22.8171 78.8257 22.3502 79.2487 21.8459 79.5449C21.3403 79.8412 20.8133 80.0107 20.261 80.0534C19.71 80.0961 19.1417 80.012 18.5534 79.8025C17.9664 79.593 17.3754 79.2567 16.7817 78.7936C16.2775 78.4 15.8572 77.9903 15.5224 77.5686C15.1875 77.1456 14.9474 76.7105 14.8006 76.2661C14.6552 75.8218 14.6045 75.3694 14.6499 74.9077C14.6952 74.4459 14.8486 73.9815 15.1101 73.5158L16.1334 74.3138C16.004 74.6087 15.9346 74.917 15.9226 75.2386C15.9119 75.5589 15.9559 75.8778 16.0587 76.1968C16.1614 76.5144 16.3241 76.8253 16.5496 77.1282C16.7751 77.4311 17.0619 77.718 17.4087 77.9889C17.8703 78.3492 18.3266 78.5961 18.7802 78.7309C19.2324 78.8657 19.67 78.9044 20.0903 78.847C20.5105 78.7896 20.912 78.6375 21.2909 78.3906C21.6711 78.1437 22.018 77.8181 22.3342 77.4151C22.6343 77.0295 22.8545 76.6278 22.9932 76.2088C23.132 75.7897 23.1786 75.3694 23.132 74.9464C23.0853 74.5247 22.9412 74.1096 22.6997 73.7026C22.4582 73.2956 22.1074 72.914 21.6471 72.5537C20.9467 72.0065 20.2623 71.6903 19.5953 71.6009C18.9283 71.5114 18.3466 71.6556 17.8517 72.0306L16.8511 71.2472Z" fill="#FA1111"/>
<path d="M14.815 69.4042L17.2844 67.572L17.9848 68.5168L11.2357 73.5264L7.89383 69.0226C7.63235 68.6689 7.44024 68.3126 7.31884 67.9537C7.19744 67.5947 7.15208 67.2464 7.18543 66.9088C7.21878 66.5698 7.33084 66.2415 7.52429 65.9239C7.71773 65.6063 7.99655 65.3114 8.36342 65.0392C8.9184 64.6575 9.44269 64.4707 9.9363 64.4774C10.4299 64.4854 10.8982 64.6535 11.3424 64.9818L12.8166 61.5682L13.6397 62.6772L12.2189 65.9012L14.815 69.4042ZM13.9679 70.0341L11.5639 66.7927C11.149 66.2335 10.7314 65.8986 10.3098 65.7878C9.88828 65.6771 9.46938 65.7758 9.05181 66.0867C8.63958 66.3923 8.41545 66.758 8.3781 67.185C8.34074 67.612 8.51551 68.0858 8.90239 68.6062L11.3851 71.953L13.9679 70.0341Z" fill="#FA1111"/>
<path d="M8.56118 62.748C7.84211 62.9975 7.18041 63.1056 6.57874 63.0736C5.97573 63.0429 5.43143 62.8894 4.94582 62.6158C4.46155 62.3423 4.03331 61.962 3.66244 61.4735C3.2929 60.9851 2.97805 60.4033 2.72191 59.7307C2.46577 59.0568 2.31635 58.4136 2.27499 57.7998C2.23364 57.1859 2.30568 56.6147 2.48978 56.085C2.67388 55.5565 2.97939 55.0814 3.40496 54.6571C3.83053 54.2327 4.38684 53.8778 5.07256 53.5909L5.27534 53.5135C5.97973 53.2706 6.63077 53.1652 7.22977 53.1985C7.82877 53.2305 8.36907 53.3853 8.85068 53.6602C9.33228 53.9351 9.75785 54.3168 10.1287 54.8052C10.4983 55.2936 10.8118 55.8741 11.0693 56.548C11.3254 57.2206 11.4788 57.8638 11.5268 58.475C11.5749 59.0862 11.5095 59.6547 11.3294 60.1818C11.1493 60.7089 10.8478 61.184 10.4262 61.6056C10.0047 62.0273 9.45101 62.3823 8.76263 62.6692L8.56118 62.748ZM3.70913 59.3531C3.90524 59.8695 4.15204 60.3139 4.44821 60.6849C4.74438 61.0558 5.08056 61.3388 5.45944 61.5336C5.83699 61.7284 6.25722 61.8298 6.71881 61.8378C7.18041 61.8459 7.68069 61.7484 8.21966 61.5429C8.73594 61.3468 9.16018 61.0932 9.49103 60.7823C9.82322 60.4727 10.0647 60.1177 10.2181 59.7214C10.3702 59.325 10.4356 58.8887 10.4129 58.4136C10.3902 57.9385 10.2795 57.4421 10.0834 56.9257C9.88726 56.4092 9.64045 55.9662 9.34562 55.5939C9.05079 55.2216 8.71326 54.94 8.33439 54.7452C7.95684 54.5503 7.54061 54.4489 7.08569 54.4369C6.6321 54.4262 6.14249 54.5196 5.61953 54.7198C5.10324 54.916 4.67767 55.1709 4.34282 55.4831C4.00796 55.7954 3.75982 56.1504 3.59973 56.5507C3.43964 56.951 3.36894 57.3887 3.38762 57.8651C3.40629 58.3415 3.51168 58.8366 3.70913 59.3531Z" fill="#FA1111"/>
<path d="M7.25645 44.359L8.30638 44.2402L9.10549 51.3289L0.754144 52.2711L0.62207 51.1021L7.92349 50.2787L7.25645 44.359Z" fill="#FA1111"/>
<path d="M8.07119 36.252L9.12111 36.3654L8.35535 43.4581L0 42.556L0.125404 41.3856L7.43216 42.1743L8.07119 36.252Z" fill="#FA1111"/>
<path d="M11.2084 20.767C11.9088 21.154 12.4597 21.565 12.86 21.9987C13.2602 22.4351 13.527 22.8968 13.6591 23.3852C13.7925 23.875 13.8032 24.3901 13.6911 24.9319C13.579 25.4737 13.3589 26.0435 13.0307 26.6386L10.9269 30.4566L3.56543 26.3984L5.37311 23.117C5.55454 22.7874 5.75332 22.4604 5.96944 22.1362C6.18423 21.8119 6.4217 21.5143 6.67917 21.2461C6.93665 20.9778 7.21948 20.7456 7.52632 20.5535C7.83315 20.3613 8.16934 20.2319 8.53621 20.1638C8.90309 20.0971 9.30331 20.1051 9.73689 20.1878C10.1705 20.2719 10.6441 20.4547 11.155 20.7363L11.2084 20.767ZM10.5694 28.9179L11.9074 26.4879C12.2596 25.85 12.4771 25.2975 12.5598 24.8318C12.6425 24.3661 12.6185 23.9577 12.4878 23.6067C12.357 23.2558 12.1342 22.9448 11.8207 22.6766C11.5072 22.4071 11.1297 22.1508 10.6881 21.908C10.2252 21.6531 9.79825 21.4903 9.40737 21.4209C9.01648 21.3515 8.64561 21.3822 8.29475 21.5143C7.94388 21.6464 7.60769 21.8799 7.28885 22.2202C6.96867 22.5605 6.64982 23.0129 6.32964 23.5774L5.0596 25.8807L10.5694 28.9179Z" fill="#FA1111"/>
<path d="M12.0956 19.738C11.5673 19.1896 11.1911 18.6358 10.967 18.074C10.7428 17.5135 10.6521 16.9557 10.6948 16.4005C10.7388 15.8454 10.9043 15.2969 11.1924 14.7551C11.4806 14.2133 11.8755 13.6849 12.3784 13.1685C12.8814 12.6534 13.403 12.2477 13.942 11.9514C14.4809 11.6552 15.0292 11.4804 15.5869 11.4257C16.1432 11.3696 16.7035 11.447 17.2665 11.6538C17.8295 11.862 18.3858 12.217 18.9354 12.7201L19.0902 12.8709C19.6065 13.4073 19.976 13.9545 20.1975 14.5123C20.4189 15.0701 20.507 15.6252 20.4603 16.1777C20.4136 16.7315 20.2468 17.2773 19.9587 17.8191C19.6718 18.3609 19.2756 18.8893 18.7727 19.4058C18.2697 19.9209 17.7508 20.3292 17.2171 20.6308C16.6835 20.9324 16.1392 21.1112 15.5842 21.1699C15.0306 21.2273 14.4729 21.1539 13.914 20.9484C13.355 20.7429 12.7987 20.3893 12.249 19.8862L12.0956 19.738ZM13.1348 13.9064C12.7493 14.3014 12.4491 14.7124 12.237 15.1368C12.0249 15.5612 11.9102 15.9855 11.8928 16.4112C11.8755 16.8356 11.9609 17.2599 12.1463 17.6816C12.3317 18.1033 12.6319 18.5157 13.0441 18.9187C13.4404 19.3043 13.8486 19.5819 14.2688 19.7527C14.6891 19.9235 15.112 19.9943 15.5362 19.9662C15.9604 19.9382 16.3833 19.8141 16.8049 19.5926C17.2265 19.3724 17.6307 19.0641 18.0162 18.6691C18.4018 18.2741 18.7006 17.8631 18.9128 17.4387C19.1249 17.0144 19.2409 16.59 19.2569 16.1643C19.2743 15.74 19.1929 15.3183 19.0115 14.9019C18.83 14.4856 18.5392 14.0812 18.139 13.6902C17.7454 13.3046 17.3359 13.0257 16.9116 12.8522C16.4874 12.6787 16.0605 12.604 15.6309 12.6267C15.2013 12.6494 14.7731 12.7695 14.3489 12.987C13.9246 13.2045 13.5191 13.5114 13.1348 13.9064Z" fill="#FA1111"/>
<path d="M23.947 5.80101L26.1776 13.2593L24.2965 14.2495L18.2451 7.93616L19.3284 7.36501L24.9302 13.21L22.6543 5.61419L24.514 4.63469L29.4447 10.7519L27.8065 2.89989L28.8897 2.32874L30.6707 10.892L28.8217 11.8648L23.947 5.80101Z" fill="#FA1111"/>
<path d="M33.4939 2.04707L34.7933 9.56144L33.634 9.76161L32.2012 1.47725L34.225 1.12762L40.8954 7.71321L39.596 0.198835L40.7433 0L42.1761 8.28436L40.1416 8.63666L33.4939 2.04707Z" fill="#FA1111"/>
</svg>
